<?xml version="1.0" encoding="UTF-8"?>
<svg id="_图层_1" data-name="图层 1" xmlns="http://www.w3.org/2000/svg" viewBox="0 0 1020 1020">
  <defs>
    <style>
      .cls-1 {
        fill: #7f47dd;
      }

      .cls-2 {
        fill: #fbae17;
      }
    </style>
  </defs>
  <circle class="cls-1" cx="510" cy="510" r="499"/>
  <g>
    <path class="cls-2" d="M728.27,825.47h-97.29l43.4-39.97c29.96-27.6,63.25-54.11,87.72-86.95,26.13-35.07,36.28-80.6,2.99-114.72-27.01-27.69-69.2-39.12-105.99-46.23-20.95-4.05-42.36-7.12-63.77-8.75-1.14-69.49-2.28-138.98-3.42-208.47-.48-29.08-45.71-29.17-45.23,0,1.26,76.64,2.51,153.29,3.77,229.93,.2,12.47,10.2,22.28,22.62,22.62,49.75,1.34,110.69,6.86,152.57,36.41,1.55,1.09,9.57,8.37,11.19,10.61-.46-.64,2.19,3.71,3.3,5.87-1.4-2.59,1.76,8.95,1.55,5.5,1.24,13.89-6.97,29.11-17.47,42.86-21.27,27.85-50.83,50.79-76.44,74.38-30.23,27.84-60.46,55.69-90.69,83.53-14.63,13.48-3.05,38.61,15.99,38.61h155.2c29.1,0,29.15-45.23,0-45.23Z"/>
    <path class="cls-2" d="M469.8,305.31c-76.4,.27-179.34,5.6-223.37,79.76-34.88,58.75-23.15,137.19-20.8,202.03,.45,12.28,10,22.54,22.62,22.62,67.66,.43,159.94,19.08,169.29,97.03,3.03,25.28-2.29,51.54-12.99,72.19-13.89,26.81-34.11,40.95-66.31,49.23-24.78,6.37-19.5,44.42,6.01,44.42h113.24c29.1,0,29.15-45.23,0-45.23h-30.67c2.25-2.65,4.41-5.42,6.45-8.33,14.19-20.19,23.59-44.62,27.56-68.91,9.93-60.76-13.15-119.34-66.42-152.19-37.06-22.85-81.44-30.87-124.71-32.89-3.26-50.53-9.29-110.05,13.2-152.51,32.5-61.35,126.12-61.77,186.91-61.99,29.1-.1,29.16-45.34,0-45.23Z"/>
    <path class="cls-2" d="M423.86,261.82c8.2,27.87,51.86,16.01,43.62-12.02-9.76-33.17-19.51-66.34-29.27-99.51-8.2-27.87-51.86-16.01-43.62,12.02,9.76,33.17,19.51,66.34,29.27,99.51Z"/>
    <path class="cls-2" d="M591.63,238.8c-8.02-27.27-17.6-59.85-29.27-99.51-8.2-27.87-51.86-16.01-43.62,12.02,9.76,33.17,19.51,66.34,29.27,99.51,8.2,27.87,51.86,16.01,43.62-12.02Z"/>
    <path class="cls-2" d="M441.66,504.71c-1.81-24.31-2.23-48.78-2.7-73.11-.57-29.07-45.8-29.17-45.23,0,.53,27.16,1.13,54.44,3.41,81.52,1.76,20.98,13.18,36.52,35.4,38.94,15.43,1.68,29.59-5.14,41.26-14.65,22.58-18.38-9.59-50.22-31.98-31.98,5.67-4.62,2.4-2.54-.15-.72Z"/>
  </g>
</svg>